<svg xmlns="http://www.w3.org/2000/svg" version="1.1" xmlns:xlink="http://www.w3.org/1999/xlink" xmlns:svgjs="http://svgjs.dev/svgjs" width="1500" height="1500" viewBox="0 0 1500 1500"><rect width="1500" height="1500" fill="#ffffff"></rect><g transform="matrix(0.6666666666666666,0,0,0.6666666666666666,249.39436519522388,565.1910681083542)"><svg viewBox="0 0 396 147" data-background-color="#ffffff" preserveAspectRatio="xMidYMid meet" height="556" width="1500" xmlns="http://www.w3.org/2000/svg" xmlns:xlink="http://www.w3.org/1999/xlink"><g id="tight-bounds" transform="matrix(1,0,0,1,0.24008861730862918,-0.20793540105728425)"><svg viewBox="0 0 395.52 147.41590395841718" height="147.41590395841718" width="395.52"><g><svg viewBox="0 0 395.52 147.41590395841718" height="147.41590395841718" width="395.52"><g><svg viewBox="0 0 395.52 147.41590395841718" height="147.41590395841718" width="395.52"><g id="textblocktransform"><svg viewBox="0 0 395.52 147.41590395841718" height="147.41590395841718" width="395.52" id="textblock"><g><svg viewBox="0 0 395.52 107.46865245179609" height="107.46865245179609" width="395.52"><path d="M394.594 23.05C392.735 11.895 387.435 8.794 387.435 8.794 371.165-2.696 350.86-0.22 332.619 1.431 300.414 1.498 268.339 3.952 236.208 5.269 168.767 5.469 100.749 2.167 33.643 10.311 27.339 12.809-6.54 10.802 1.121 24.478 3.129 30.167 10.456 36.481 10.232 41.701 11.236 42.616 12.631 40.519 13.226 41.835 15.309 45.383 18.711 43.709 21.501 45.807 17.614 51.407 20.403 56.069 23.062 60.955 18.377 62.227 12.371 61.625 9.675 65.841 9.396 68.898 7.89 68.318 6.235 68.184 5.026 68.095 2.59 68.429 2.999 69.389 4.394 72.668-1.594 74.565 2.162 77.777-0.422 81.258 3.948 84.27 3.353 88.04 3.278 88.799 3.687 89.446 4.338 89.624 7.22 90.584 3.018 92.458 3.464 94.488 33.029 108.365 65.104 98.772 95.394 105.152 103.259 100.69 97.346 106.736 100.489 105.799 102.943 104.706 104.728 109.235 107.499 106.669 107.927 105.933 107.276 104.193 108.8 104.528 109.6 104.706 110.307 104.661 110.418 103.635 110.586 102.096 109.117 103.055 108.726 102.252 112.947 98.191 111.906 107.852 115.866 107.45 115.68 106.268 114.528 104.572 116.889 104.795 119.232 103.1 119.306 101.694 121.389 105.509 121.463 106.335 121.835 106.915 122.43 107.316 128.938 103.167 135.409 108.789 142.233 106.915 146.417 104.862 150.433 108.03 154.672 107.249 156.16 106.625 157.666 105.509 159.098 107.383 176.632 107.785 195.319 106.112 211.943 107.45 256.364 104.952 303.836 108.477 350.674 105.175 361.719 103.903 373.192 102.096 383.958 100.646 383.958 100.646 392.679 96.674 392.679 78.826S394.538 63.209 394.817 48.997C395.096 34.785 396.398 34.205 394.538 23.05Z" opacity="1" fill="#4d9a9c" data-fill-palette-color="tertiary"></path><g transform="matrix(1,0,0,1,55.76832,26.068561146666667)"><svg width="283.98335999999995" viewBox="2.1 -36.41 189.94 37.01" height="55.331530158462755" data-palette-color="#ffffff"><path d="M3.1 0.15L3.1 0.15Q2.6 0.15 2.4-0.2 2.2-0.55 2.2-0.95L2.2-0.95Q2.25-1.8 2.6-1.9 2.95-2 3.45-2L3.45-2Q5.05-2 5.68-2.58 6.3-3.15 6.45-4.03 6.6-4.9 6.6-5.85L6.6-5.85 6.7-25.7Q6.7-28.05 5.9-28.7 5.1-29.35 3.35-29.7L3.35-29.7Q2.6-29.85 2.35-29.98 2.1-30.1 2.1-30.85L2.1-30.85Q2.1-31.7 2.7-31.78 3.3-31.85 4.1-31.85L4.1-31.85Q6.9-31.85 8.63-31.4 10.35-30.95 11.68-29.8 13-28.65 14.55-26.55L14.55-26.55 28.25-8.55 28.4-8.55 28.3-25.7Q28.3-26.65 28.15-27.53 28-28.4 27.38-28.98 26.75-29.55 25.15-29.55L25.15-29.55Q24.65-29.55 24.3-29.65 23.95-29.75 23.85-30.6L23.85-30.6Q23.85-31 24.08-31.35 24.3-31.7 24.75-31.7L24.75-31.7Q25.85-31.65 26.53-31.63 27.2-31.6 27.88-31.58 28.55-31.55 29.55-31.55L29.55-31.55Q30.55-31.55 31.2-31.58 31.85-31.6 32.52-31.63 33.2-31.65 34.25-31.7L34.25-31.7Q34.75-31.7 34.95-31.35 35.15-31 35.15-30.6L35.15-30.6Q35.1-29.75 34.77-29.65 34.45-29.55 33.9-29.55L33.9-29.55Q32.35-29.55 31.7-28.98 31.05-28.4 30.93-27.53 30.8-26.65 30.75-25.7L30.75-25.7 30.65-0.5Q30.6-0.1 30.18 0.03 29.75 0.15 29.4 0.15L29.4 0.15Q28.45 0.15 27.95-0.5L27.95-0.5 9.1-25.7 8.95-25.7 9.05-5.85Q9.1-4.9 9.22-4.03 9.35-3.15 10-2.58 10.65-2 12.2-2L12.2-2Q12.75-2 13.1-1.9 13.45-1.8 13.5-0.95L13.5-0.95Q13.5-0.55 13.28-0.2 13.05 0.15 12.6 0.15L12.6 0.15Q11.55 0.1 10.83 0.08 10.1 0.05 9.43 0.03 8.75 0 7.75 0L7.75 0Q6.75 0 6.13 0.03 5.5 0.05 4.85 0.08 4.2 0.1 3.1 0.15ZM43.7 0.6L43.7 0.6Q40.65 0.6 38.82-1.15 37-2.9 37-5.35L37-5.35Q37-7.9 38.32-9.35 39.65-10.8 41.82-11.5 44-12.2 46.57-12.45 49.15-12.7 51.6-12.85L51.6-12.85 51.6-16.8Q51.6-19.15 50.42-20.48 49.25-21.8 46.45-21.8L46.45-21.8Q45.05-21.8 43.82-20.9 42.6-20 42.6-18.3L42.6-18.3Q42.6-17.5 43-16.95 43.4-16.4 43.8-16.1 44.2-15.8 44.2-15.7L44.2-15.7Q44.2-15.5 43.62-14.98 43.05-14.45 42.05-14.45L42.05-14.45Q40.5-14.45 39.65-15.6 38.8-16.75 38.8-18.15L38.8-18.15Q38.8-20.05 39.97-21.15 41.15-22.25 43-22.75 44.85-23.25 46.75-23.25L46.75-23.25Q49-23.25 51.12-22.7 53.25-22.15 54.62-20.6 56-19.05 56-15.95L56-15.95 56-4.3Q56.05-3.8 56.25-3.1 56.45-2.4 57.02-1.88 57.6-1.35 58.6-1.35L58.6-1.35Q58.95-1.35 59.15-1.23 59.35-1.1 59.35-0.55L59.35-0.55Q59.35-0.1 58.85 0.15 58.35 0.4 57.7 0.5 57.05 0.6 56.6 0.6L56.6 0.6Q54.75 0.6 53.3-0.48 51.85-1.55 51.6-3.45L51.6-3.45Q50.5-1.45 48.32-0.43 46.15 0.6 43.7 0.6ZM45.3-2.1L45.3-2.1Q47-2.1 48.42-2.95 49.85-3.8 50.72-5.28 51.6-6.75 51.6-8.55L51.6-8.55 51.6-11.4Q46.45-11.05 44.25-9.75 42.05-8.45 42.05-5.5L42.05-5.5Q42.05-2.1 45.3-2.1ZM72.05 0.6L72.05 0.6Q68.65 0.6 66.65-1.45 64.65-3.5 64.65-6.85L64.65-6.85 64.65-16.1Q64.65-17 64.57-17.78 64.5-18.55 64-19.03 63.5-19.5 62.1-19.5L62.1-19.5Q61.65-19.5 61.27-19.63 60.9-19.75 60.9-20.5L60.9-20.5Q60.9-21.25 61.7-21.4L61.7-21.4Q64-21.75 65.22-22.1 66.45-22.45 67.1-22.7 67.75-22.95 68.25-23L68.25-23Q68.65-23.05 68.92-22.85 69.2-22.65 69.2-22.05L69.2-22.05 69.2-6.9Q69.2-5.25 69.92-4.2 70.65-3.15 71.75-2.65 72.85-2.15 74-2.15L74-2.15Q75.75-2.15 77.05-2.78 78.35-3.4 79.15-4.23 79.95-5.05 80.2-5.6L80.2-5.6 80.2-16.1Q80.2-17 80.12-17.78 80.05-18.55 79.55-19.03 79.05-19.5 77.65-19.5L77.65-19.5Q77.2-19.5 76.82-19.63 76.45-19.75 76.45-20.5L76.45-20.5Q76.45-21.25 77.25-21.4L77.25-21.4Q79.55-21.75 80.77-22.1 82-22.45 82.65-22.7 83.3-22.95 83.8-23L83.8-23Q84.2-23.05 84.47-22.85 84.75-22.65 84.75-22.05L84.75-22.05 84.75-4.75Q84.75-1.8 88.7-1.8L88.7-1.8Q89.25-1.8 89.4-1.5 89.55-1.2 89.55-0.85L89.55-0.85Q89.55-0.15 88.7 0L88.7 0 80.65 0.55Q80.3 0.55 80.25 0.25 80.2-0.05 80.2-0.45L80.2-0.45 80.2-3.25 80.1-3.25Q79.15-2.35 78.07-1.45 77-0.55 75.57 0.03 74.15 0.6 72.05 0.6ZM103.99 0.5L101.04 0.5 94.64-17.25Q93.84-19.1 93.09-19.88 92.34-20.65 90.84-20.85L90.84-20.85Q90.19-20.95 89.97-21.05 89.74-21.15 89.69-21.8L89.69-21.8Q89.64-22.65 90.17-22.73 90.69-22.8 91.44-22.85L91.44-22.85Q94.54-23 96.29-21.95 98.04-20.9 99.14-18.4L99.14-18.4 103.74-5.45 103.89-5.45Q104.39-7.05 105.09-9.47 105.79-11.9 106.52-14.5 107.24-17.1 107.84-19.33 108.44-21.55 108.74-22.65L108.74-22.65 111.14-22.65 117.99-5.45 118.14-5.45Q118.84-7.55 119.49-10.08 120.14-12.6 120.69-14.93 121.24-17.25 121.64-18.75L121.64-18.75Q121.94-20.1 121.54-20.5 121.14-20.9 119.74-20.9L119.74-20.9Q119.29-20.9 118.99-20.98 118.69-21.05 118.64-21.8L118.64-21.8Q118.64-22.1 118.82-22.45 118.99-22.8 119.34-22.8L119.34-22.8Q120.79-22.75 121.87-22.7 122.94-22.65 124.24-22.65L124.24-22.65Q125.54-22.65 126.27-22.7 126.99-22.75 128.44-22.8L128.44-22.8Q128.84-22.8 129.02-22.45 129.19-22.1 129.19-21.8L129.19-21.8Q129.14-21.05 128.82-20.98 128.49-20.9 128.09-20.9L128.09-20.9Q126.29-20.9 125.27-20.3 124.24-19.7 123.79-17.95L123.79-17.95 118.24 0.5 115.29 0.5 108.94-15.85 103.99 0.5ZM130.69 0.15L130.69 0.15Q130.29 0.15 130.09-0.18 129.89-0.5 129.89-0.85L129.89-0.85Q129.94-1.6 130.27-1.68 130.59-1.75 131.04-1.75L131.04-1.75Q132.44-1.75 132.97-2.23 133.49-2.7 133.57-3.5 133.64-4.3 133.64-5.15L133.64-5.15 133.64-29.5Q133.64-30.4 133.57-31.18 133.49-31.95 132.99-32.43 132.49-32.9 131.09-32.9L131.09-32.9Q130.64-32.9 130.27-33.02 129.89-33.15 129.89-33.9L129.89-33.9Q129.89-34.65 130.69-34.8L130.69-34.8Q132.99-35.15 134.22-35.5 135.44-35.85 136.09-36.1 136.74-36.35 137.24-36.4L137.24-36.4Q137.64-36.45 137.92-36.25 138.19-36.05 138.19-35.45L138.19-35.45 138.19-12.6Q140.39-13.05 141.79-14.45L141.79-14.45 145.99-18.75Q146.29-19.1 146.67-19.5 147.04-19.9 147.12-20.25 147.19-20.6 146.69-20.8 146.19-21 144.79-20.9L144.79-20.9Q144.24-21 144.19-21.8L144.19-21.8Q144.19-22.2 144.42-22.5 144.64-22.8 144.99-22.8L144.99-22.8Q146.14-22.75 147.77-22.7 149.39-22.65 150.49-22.65L150.49-22.65Q151.34-22.65 152.17-22.7 152.99-22.75 153.84-22.8L153.84-22.8Q154.24-22.8 154.44-22.5 154.64-22.2 154.64-21.8L154.64-21.8Q154.59-21.15 154.37-21.03 154.14-20.9 153.79-20.9L153.79-20.9Q151.84-20.9 150.64-20.2 149.44-19.5 147.94-17.95L147.94-17.95 143.74-13.65Q144.34-12.85 145.34-11.7 146.34-10.55 147.47-9.28 148.59-8 149.59-6.88 150.59-5.75 151.19-5.05L151.19-5.05Q152.64-3.5 153.62-2.68 154.59-1.85 156.04-1.75L156.04-1.75Q156.44-1.7 156.79-1.63 157.14-1.55 157.14-0.85L157.14-0.85Q157.14-0.5 156.97-0.18 156.79 0.15 156.34 0.15L156.34 0.15Q155.64 0.1 155.19 0.08 154.74 0.05 154.19 0.03 153.64 0 152.62 0 151.59 0 149.69 0L149.69 0Q147.94-1.9 145.67-4.55 143.39-7.2 141.14-9.8L141.14-9.8Q140.64-10.35 139.87-10.83 139.09-11.3 138.19-11.2L138.19-11.2 138.19-5.15Q138.19-4.3 138.27-3.5 138.34-2.7 138.87-2.23 139.39-1.75 140.74-1.75L140.74-1.75Q141.24-1.75 141.57-1.68 141.89-1.6 141.94-0.85L141.94-0.85Q141.94-0.5 141.74-0.18 141.54 0.15 141.14 0.15L141.14 0.15Q139.69 0.05 138.44 0.03 137.19 0 135.89 0L135.89 0Q134.54 0 133.34 0.03 132.14 0.05 130.69 0.15ZM159.54 0.15L159.54 0.15Q159.19 0.15 158.96-0.18 158.74-0.5 158.74-0.85L158.74-0.85Q158.84-1.6 159.14-1.68 159.44-1.75 159.94-1.75L159.94-1.75Q161.34-1.75 161.84-2.23 162.34-2.7 162.41-3.5 162.49-4.3 162.49-5.15L162.49-5.15 162.49-16.6Q162.49-17.5 162.41-18.28 162.34-19.05 161.84-19.53 161.34-20 159.94-20L159.94-20Q159.49-20 159.11-20.13 158.74-20.25 158.74-21L158.74-21Q158.74-21.75 159.54-21.9L159.54-21.9Q161.84-22.25 163.06-22.6 164.29-22.95 164.91-23.2 165.54-23.45 166.04-23.5L166.04-23.5Q166.44-23.55 166.71-23.35 166.99-23.15 166.99-22.55L166.99-22.55 166.99-19.45 167.14-19.45Q168.84-21.1 170.64-22.18 172.44-23.25 173.94-23.25L173.94-23.25Q175.69-23.25 176.61-21.95 177.54-20.65 177.54-19.2L177.54-19.2Q177.54-17.95 176.74-16.78 175.94-15.6 174.34-15.6L174.34-15.6Q173.54-15.6 173.06-15.93 172.59-16.25 172.54-16.4L172.54-16.4Q172.54-16.5 173.01-17 173.49-17.5 173.49-18.25L173.49-18.25Q173.49-19.15 173.01-19.7 172.54-20.25 171.74-20.25L171.74-20.25Q170.89-20.25 169.56-19.4 168.24-18.55 167.04-17.35L167.04-17.35 167.04-5.15Q167.04-4.3 167.11-3.5 167.19-2.7 167.71-2.23 168.24-1.75 169.64-1.75L169.64-1.75Q170.09-1.75 170.41-1.68 170.74-1.6 170.79-0.85L170.79-0.85Q170.79-0.5 170.59-0.18 170.39 0.15 169.99 0.15L169.99 0.15Q168.54 0.05 167.31 0.03 166.09 0 164.74 0L164.74 0Q163.39 0 162.19 0.03 160.99 0.05 159.54 0.15ZM180.79 0.15L180.79 0.15Q180.44 0.15 180.21-0.18 179.99-0.5 179.99-0.85L179.99-0.85Q180.09-1.6 180.39-1.68 180.69-1.75 181.19-1.75L181.19-1.75Q182.59-1.75 183.09-2.23 183.59-2.7 183.66-3.5 183.74-4.3 183.74-5.15L183.74-5.15 183.74-16.6Q183.74-17.5 183.66-18.28 183.59-19.05 183.09-19.53 182.59-20 181.19-20L181.19-20Q180.74-20 180.36-20.13 179.99-20.25 179.99-21L179.99-21Q179.99-21.75 180.79-21.9L180.79-21.9Q183.09-22.25 184.31-22.6 185.54-22.95 186.19-23.2 186.84-23.45 187.34-23.5L187.34-23.5Q187.74-23.55 188.01-23.35 188.29-23.15 188.29-22.55L188.29-22.55 188.29-5.15Q188.29-4.3 188.36-3.5 188.44-2.7 188.96-2.23 189.49-1.75 190.89-1.75L190.89-1.75Q191.34-1.75 191.66-1.68 191.99-1.6 192.04-0.85L192.04-0.85Q192.04-0.5 191.84-0.18 191.64 0.15 191.24 0.15L191.24 0.15Q189.79 0.05 188.56 0.03 187.34 0 185.99 0L185.99 0Q184.64 0 183.44 0.03 182.24 0.05 180.79 0.15ZM185.74-29.05L185.74-29.05Q184.34-29.05 183.39-29.93 182.44-30.8 182.44-32.1L182.44-32.1Q182.44-33.25 183.59-34.15 184.74-35.05 186.19-35.05L186.19-35.05Q187.44-35.05 188.24-34.18 189.04-33.3 189.04-31.95L189.04-31.95Q189.04-30.75 188.09-29.9 187.14-29.05 185.74-29.05Z" opacity="1" transform="matrix(1,0,0,1,0,0)" fill="#ffffff" class="wordmark-text-0" data-fill-palette-color="quaternary" id="text-0"></path></svg></g></svg></g><g transform="matrix(1,0,0,1,75.54432,120.53109876548534)"><svg viewBox="0 0 244.43135999999998 26.88480519293184" height="26.88480519293184" width="244.43135999999998"><g transform="matrix(1,0,0,1,0,0)"><svg width="244.43135999999998" viewBox="3 -36.05 415.89 45.75" height="26.88480519293184" data-palette-color="#646464"><path d="M16.4-15.55L6.3-15.55 6.3-19.6 16.4-19.6 16.4-15.55ZM3 0L3-35.25 7.55-35.25 7.55 0 3 0ZM6.05-31.3L6.05-35.25 18.9-35.25 18.9-31.3 6.05-31.3ZM27.95 0L23.4 0 23.4-25.25 27.95-25.25 27.95 0ZM25.65-28.6L25.65-28.6Q24.4-28.6 23.55-29.45 22.7-30.3 22.7-31.55L22.7-31.55Q22.7-32.8 23.55-33.68 24.4-34.55 25.65-34.55L25.65-34.55Q26.9-34.55 27.77-33.68 28.65-32.8 28.65-31.55L28.65-31.55Q28.65-30.3 27.77-29.45 26.9-28.6 25.65-28.6ZM39 0L34.45 0 34.45-25.25 39-25.25 39 0ZM53.05 0L48.5 0 48.5-17.2 53.05-17.2 53.05 0ZM53.05-17.2L48.5-17.2Q48.5-19.3 47.2-20.63 45.9-21.95 43.84-21.95L43.84-21.95 45-26Q47.3-26 49.12-24.85 50.95-23.7 52-21.7 53.05-19.7 53.05-17.2L53.05-17.2ZM39-17.1L37-17.1Q37-19.65 38.05-21.68 39.09-23.7 40.9-24.85 42.7-26 45-26L45-26 43.84-21.95Q41.7-21.95 40.34-20.6 39-19.25 39-17.1L39-17.1ZM76.04-35.25L76.04-25.2 71.49-25.2 71.49-35.25 76.04-35.25ZM76.04 0L71.49 0 71.49-25.25 76.04-25.25 76.04 0ZM61.99-8.05L57.44-8.05 57.44-17.2 61.99-17.2 61.99-8.05ZM61.99-17.2L61.99-17.2 57.44-17.2Q57.44-19.7 58.49-21.7 59.54-23.7 61.37-24.85 63.19-26 65.54-26L65.54-26 66.69-21.95Q64.64-21.95 63.32-20.63 61.99-19.3 61.99-17.2ZM73.49-17.1L73.49-17.1 71.49-17.1Q71.49-19.25 70.14-20.6 68.79-21.95 66.69-21.95L66.69-21.95 65.54-26Q67.79-26 69.62-24.85 71.44-23.7 72.47-21.68 73.49-19.65 73.49-17.1ZM57.44-8.05L61.99-8.05Q61.99-5.95 63.32-4.63 64.64-3.3 66.69-3.3L66.69-3.3 65.54 0.75Q63.19 0.75 61.37-0.4 59.54-1.55 58.49-3.55 57.44-5.55 57.44-8.05L57.44-8.05ZM71.49-8.2L73.49-8.2Q73.49-5.65 72.47-3.63 71.44-1.6 69.62-0.43 67.79 0.75 65.54 0.75L65.54 0.75 66.69-3.3Q68.79-3.3 70.14-4.65 71.49-6 71.49-8.2L71.49-8.2ZM101.49-7.65L96.94-7.65 96.94-35.25 101.49-35.25 101.49-7.65ZM96.94-7.65L101.49-7.65Q101.49-3.65 99.51-1.43 97.54 0.8 93.99 0.8L93.99 0.8 93.59-3.15Q94.64-3.15 95.39-3.68 96.14-4.2 96.54-5.23 96.94-6.25 96.94-7.65L96.94-7.65ZM89.44-0.75L91.24-4Q91.79-3.65 92.36-3.4 92.94-3.15 93.59-3.15L93.59-3.15 93.99 0.8Q92.79 0.8 91.64 0.4 90.49 0 89.44-0.75L89.44-0.75ZM124.84-8.95L120.29-8.95 120.29-16.3 124.84-16.3 124.84-8.95ZM110.79-8.95L106.24-8.95 106.24-16.3 110.79-16.3 110.79-8.95ZM115.69-22.05L115.39-22.05 115.39-26 115.69-26 115.69-22.05ZM115.69 0.75L115.39 0.75 115.39-3.2 115.69-3.2 115.69 0.75ZM110.79-16.25L106.24-16.25Q106.24-19.05 107.46-21.25 108.69-23.45 110.76-24.73 112.84-26 115.49-26L115.49-26 115.49-22.05Q113.29-22.05 112.04-20.55 110.79-19.05 110.79-16.25L110.79-16.25ZM124.84-16.25L124.84-16.25 120.29-16.25Q120.29-19.05 119.06-20.55 117.84-22.05 115.59-22.05L115.59-22.05 115.59-26Q118.24-26 120.31-24.73 122.39-23.45 123.61-21.25 124.84-19.05 124.84-16.25ZM106.24-9L106.24-9 110.79-9Q110.79-6.25 112.04-4.73 113.29-3.2 115.49-3.2L115.49-3.2 115.49 0.75Q112.84 0.75 110.76-0.53 108.69-1.8 107.46-4 106.24-6.2 106.24-9ZM120.29-9L124.84-9Q124.84-6.2 123.61-4 122.39-1.8 120.31-0.53 118.24 0.75 115.59 0.75L115.59 0.75 115.59-3.2Q117.84-3.2 119.06-4.73 120.29-6.25 120.29-9L120.29-9ZM134.03-25.2L129.48-25.2 129.48-35.25 134.03-35.25 134.03-25.2ZM134.03-25.25L134.03 0 129.48 0 129.48-25.25 134.03-25.25ZM148.08-17.2L148.08-8.05 143.53-8.05 143.53-17.2 148.08-17.2ZM148.08-17.2L143.53-17.2Q143.53-19.3 142.23-20.63 140.93-21.95 138.88-21.95L138.88-21.95 140.03-26Q142.33-26 144.16-24.85 145.98-23.7 147.03-21.7 148.08-19.7 148.08-17.2L148.08-17.2ZM134.03-17.1L132.03-17.1Q132.03-19.65 133.08-21.68 134.13-23.7 135.93-24.85 137.73-26 140.03-26L140.03-26 138.88-21.95Q136.73-21.95 135.38-20.6 134.03-19.25 134.03-17.1L134.03-17.1ZM143.53-8.05L143.53-8.05 148.08-8.05Q148.08-5.55 147.03-3.55 145.98-1.55 144.16-0.4 142.33 0.75 140.03 0.75L140.03 0.75 138.88-3.3Q140.93-3.3 142.23-4.63 143.53-5.95 143.53-8.05ZM132.03-8.2L132.03-8.2 134.03-8.2Q134.03-6 135.38-4.65 136.73-3.3 138.88-3.3L138.88-3.3 140.03 0.75Q137.73 0.75 135.93-0.43 134.13-1.6 133.08-3.63 132.03-5.65 132.03-8.2ZM167.78 0L163.23 0 163.23-25.25 167.78-25.25 167.78 0ZM165.48-28.6L165.48-28.6Q164.23-28.6 163.38-29.45 162.53-30.3 162.53-31.55L162.53-31.55Q162.53-32.8 163.38-33.68 164.23-34.55 165.48-34.55L165.48-34.55Q166.73-34.55 167.6-33.68 168.48-32.8 168.48-31.55L168.48-31.55Q168.48-30.3 167.6-29.45 166.73-28.6 165.48-28.6ZM178.83 0L174.28 0 174.28-25.25 178.83-25.25 178.83 0ZM192.88 0L188.33 0 188.33-17.2 192.88-17.2 192.88 0ZM192.88-17.2L188.33-17.2Q188.33-19.3 187.03-20.63 185.73-21.95 183.68-21.95L183.68-21.95 184.83-26Q187.13-26 188.95-24.85 190.78-23.7 191.83-21.7 192.88-19.7 192.88-17.2L192.88-17.2ZM178.83-17.1L176.83-17.1Q176.83-19.65 177.88-21.68 178.93-23.7 180.73-24.85 182.53-26 184.83-26L184.83-26 183.68-21.95Q181.53-21.95 180.18-20.6 178.83-19.25 178.83-17.1L178.83-17.1ZM226.32-7.9L221.77-7.9Q221.77-9.75 220.72-11.18 219.67-12.6 218.02-13.85 216.37-15.1 214.5-16.4 212.62-17.7 210.97-19.25 209.32-20.8 208.27-22.78 207.22-24.75 207.22-27.35L207.22-27.35 211.77-27.35Q211.77-25.55 212.82-24.13 213.87-22.7 215.52-21.43 217.17-20.15 219.05-18.85 220.92-17.55 222.57-16.03 224.22-14.5 225.27-12.53 226.32-10.55 226.32-7.9L226.32-7.9ZM211.77-27.25L207.22-27.25Q207.22-30 208.47-31.95 209.72-33.9 211.97-34.95 214.22-36 217.12-36L217.12-36 217.12-32.1Q214.62-32.1 213.2-30.8 211.77-29.5 211.77-27.25L211.77-27.25ZM221.77-8L226.32-8Q226.32-5.3 225.07-3.33 223.82-1.35 221.6-0.3 219.37 0.75 216.42 0.75L216.42 0.75 216.42-3.2Q218.92-3.2 220.35-4.48 221.77-5.75 221.77-8L221.77-8ZM226.07-28.55L221.82-27.7Q221.57-29.95 220.25-31.03 218.92-32.1 217.12-32.1L217.12-32.1 217.12-36Q219.47-36 221.37-35.05 223.27-34.1 224.52-32.45 225.77-30.8 226.07-28.55L226.07-28.55ZM206.27-9.05L210.42-9.9Q210.72-6.75 212.3-4.98 213.87-3.2 216.42-3.2L216.42-3.2 216.42 0.75Q212.17 0.75 209.5-1.85 206.82-4.45 206.27-9.05L206.27-9.05ZM236.17 0L231.62 0 231.62-25.25 236.17-25.25 236.17 0ZM233.87-28.6L233.87-28.6Q232.62-28.6 231.77-29.45 230.92-30.3 230.92-31.55L230.92-31.55Q230.92-32.8 231.77-33.68 232.62-34.55 233.87-34.55L233.87-34.55Q235.12-34.55 235.99-33.68 236.87-32.8 236.87-31.55L236.87-31.55Q236.87-30.3 235.99-29.45 235.12-28.6 233.87-28.6ZM247.22 0L242.67 0 242.67-25.25 247.22-25.25 247.22 0ZM261.27 0L256.72 0 256.72-17.2 261.27-17.2 261.27 0ZM261.27-17.2L256.72-17.2Q256.72-19.3 255.42-20.63 254.12-21.95 252.07-21.95L252.07-21.95 253.22-26Q255.52-26 257.34-24.85 259.17-23.7 260.22-21.7 261.27-19.7 261.27-17.2L261.27-17.2ZM247.22-17.1L245.22-17.1Q245.22-19.65 246.27-21.68 247.32-23.7 249.12-24.85 250.92-26 253.22-26L253.22-26 252.07-21.95Q249.92-21.95 248.57-20.6 247.22-19.25 247.22-17.1L247.22-17.1ZM284.26 0.9L279.71 0.9 279.71-25.25 284.26-25.25 284.26 0.9ZM270.21-8.7L265.66-8.7 265.66-17.2 270.21-17.2 270.21-8.7ZM270.21-17.2L270.21-17.2 265.66-17.2Q265.66-19.7 266.71-21.7 267.76-23.7 269.59-24.85 271.41-26 273.76-26L273.76-26 274.91-21.95Q272.86-21.95 271.54-20.63 270.21-19.3 270.21-17.2ZM281.71-17.1L281.71-17.1 279.71-17.1Q279.71-19.25 278.36-20.6 277.01-21.95 274.91-21.95L274.91-21.95 273.76-26Q276.01-26 277.84-24.85 279.66-23.7 280.69-21.68 281.71-19.65 281.71-17.1ZM265.66-8.7L270.21-8.7Q270.21-6.6 271.54-5.28 272.86-3.95 274.91-3.95L274.91-3.95 273.76 0.1Q271.41 0.1 269.59-1.05 267.76-2.2 266.71-4.2 265.66-6.2 265.66-8.7L265.66-8.7ZM279.71-8.85L281.71-8.85Q281.71-6.3 280.69-4.28 279.66-2.25 277.84-1.07 276.01 0.1 273.76 0.1L273.76 0.1 274.91-3.95Q277.01-3.95 278.36-5.3 279.71-6.65 279.71-8.85L279.71-8.85ZM279.71 0.75L284.26 0.75Q284.26 3.3 283.06 5.33 281.86 7.35 279.76 8.53 277.66 9.7 275.01 9.7L275.01 9.7 275.01 5.75Q277.06 5.75 278.39 4.33 279.71 2.9 279.71 0.75L279.71 0.75ZM266.06 2.25L270.26 1.4Q270.51 3.6 271.86 4.67 273.21 5.75 275.01 5.75L275.01 5.75 275.01 9.7Q272.71 9.7 270.76 8.75 268.81 7.8 267.59 6.1 266.36 4.4 266.06 2.25L266.06 2.25ZM295.21 0L290.66 0 290.66-36 295.21-36 295.21 0ZM318.86-11.25L301.81-11.25 301.81-14.5 318.86-14.5 318.86-11.25ZM309.81 0.8L309.56 0.8 309.56-3.15 309.81-3.15 309.81 0.8ZM304.91-8.95L300.36-8.95 300.36-16.3 304.91-16.3 304.91-8.95ZM318.86-14.5L314.31-14.5 314.31-17.1 318.86-17.1 318.86-14.5ZM318.86-17.1L318.86-17.1 314.31-17.1Q314.31-19.3 312.98-20.7 311.66-22.1 309.56-22.1L309.56-22.1 309.56-26Q312.26-26 314.33-24.85 316.41-23.7 317.63-21.68 318.86-19.65 318.86-17.1ZM314.51-7.5L314.51-7.5 318.76-6.65Q318.46-4.5 317.21-2.8 315.96-1.1 314.06-0.15 312.16 0.8 309.81 0.8L309.81 0.8 309.81-3.15Q311.61-3.15 312.93-4.23 314.26-5.3 314.51-7.5ZM304.91-16.25L300.36-16.25Q300.36-19.1 301.58-21.28 302.81-23.45 304.88-24.73 306.96-26 309.61-26L309.61-26 309.61-22.1Q307.41-22.1 306.16-20.58 304.91-19.05 304.91-16.25L304.91-16.25ZM300.36-8.95L300.36-8.95 304.91-8.95Q304.91-6.2 306.16-4.67 307.41-3.15 309.61-3.15L309.61-3.15 309.61 0.8Q306.96 0.8 304.88-0.48 302.81-1.75 301.58-3.95 300.36-6.15 300.36-8.95ZM337.05-8.55L332.5-8.55 332.5-26.7 337.05-26.7 337.05-8.55ZM337.05-26.7L332.5-26.7Q332.5-29.45 333.75-31.58 335-33.7 337.25-34.88 339.5-36.05 342.4-36.05L342.4-36.05 342.4-32.1Q339.9-32.1 338.48-30.7 337.05-29.3 337.05-26.7L337.05-26.7ZM332.5-8.6L332.5-8.6 337.05-8.6Q337.05-6 338.48-4.58 339.9-3.15 342.4-3.15L342.4-3.15 342.4 0.8Q339.5 0.8 337.25-0.4 335-1.6 333.75-3.7 332.5-5.8 332.5-8.6ZM352.5-26.25L348.35-25.4Q348.05-28.55 346.48-30.33 344.9-32.1 342.35-32.1L342.35-32.1 342.35-36.05Q346.6-36.05 349.28-33.45 351.95-30.85 352.5-26.25L352.5-26.25ZM348.35-9.85L348.35-9.85 352.5-9.05Q351.95-4.4 349.28-1.8 346.6 0.8 342.35 0.8L342.35 0.8 342.35-3.15Q344.9-3.15 346.48-4.93 348.05-6.7 348.35-9.85ZM362.05 0L357.5 0 357.5-36 362.05-36 362.05 0ZM373.6 0L369.05 0 369.05-25.25 373.6-25.25 373.6 0ZM371.3-28.6L371.3-28.6Q370.05-28.6 369.2-29.45 368.35-30.3 368.35-31.55L368.35-31.55Q368.35-32.8 369.2-33.68 370.05-34.55 371.3-34.55L371.3-34.55Q372.55-34.55 373.42-33.68 374.3-32.8 374.3-31.55L374.3-31.55Q374.3-30.3 373.42-29.45 372.55-28.6 371.3-28.6ZM383.8-8.9L379.25-8.9 379.25-16.35 383.8-16.35 383.8-8.9ZM383.8-16.3L379.25-16.3Q379.25-19.1 380.47-21.3 381.69-23.5 383.77-24.78 385.85-26.05 388.5-26.05L388.5-26.05 388.5-22.1Q386.3-22.1 385.05-20.6 383.8-19.1 383.8-16.3L383.8-16.3ZM397.39-18.6L393.14-17.75Q392.89-20 391.57-21.05 390.25-22.1 388.44-22.1L388.44-22.1 388.44-26.05Q390.8-26.05 392.69-25.1 394.6-24.15 395.85-22.48 397.1-20.8 397.39-18.6L397.39-18.6ZM379.25-8.95L379.25-8.95 383.8-8.95Q383.8-6.2 385.05-4.67 386.3-3.15 388.5-3.15L388.5-3.15 388.5 0.8Q385.85 0.8 383.77-0.48 381.69-1.75 380.47-3.95 379.25-6.15 379.25-8.95ZM393.14-7.5L393.14-7.5 397.39-6.65Q397.1-4.5 395.85-2.8 394.6-1.1 392.69-0.15 390.8 0.8 388.44 0.8L388.44 0.8 388.44-3.15Q390.25-3.15 391.57-4.23 392.89-5.3 393.14-7.5ZM418.89 0L414.14 0 405.19-13.95 409.54-15.4 418.89 0ZM418.29-25.25L405.34-9 401.84-11.35 412.79-25.25 418.29-25.25ZM405.99 0L401.44 0 401.44-36 405.99-36 405.99 0Z" opacity="1" transform="matrix(1,0,0,1,0,0)" fill="#646464" class="slogan-text-1" data-fill-palette-color="secondary" id="text-1"></path></svg></g></svg></g></svg></g></svg></g><g></g></svg></g><defs></defs></svg><rect width="395.52" height="147.41590395841718" fill="none" stroke="none" visibility="hidden"></rect></g></svg></g></svg>